<?xml version="1.0" encoding="UTF-8" standalone="no"?>
<svg
   xmlns:dc="http://purl.org/dc/elements/1.1/"
   xmlns:cc="http://creativecommons.org/ns#"
   xmlns:rdf="http://www.w3.org/1999/02/22-rdf-syntax-ns#"
   xmlns:svg="http://www.w3.org/2000/svg"
   xmlns="http://www.w3.org/2000/svg"
   width="92.657791mm"
   height="15.798054mm"
   viewBox="0 0 92.657791 15.798054"
   version="1.1"
   id="svg1275">
  <defs
     id="defs1269" />
  <metadata
     id="metadata1272">
    <rdf:RDF>
      <cc:Work
         rdf:about="">
        <dc:format>image/svg+xml</dc:format>
        <dc:type
           rdf:resource="http://purl.org/dc/dcmitype/StillImage" />
        <dc:title></dc:title>
      </cc:Work>
    </rdf:RDF>
  </metadata>
  <g
     id="layer1"
     transform="translate(-70.843722,-73.74383)">
    <g
       aria-label="emacloud"
       id="text1245"
       style="font-size:8.15594px;line-height:1.25;font-family:Oswald;-inkscape-font-specification:Oswald;fill:#595f68;fill-opacity:1;stroke:#000000;stroke-width:1.52083;stroke-miterlimit:4;stroke-dasharray:none;stroke-opacity:1;paint-order:markers stroke fill"
       transform="matrix(1.6993512,0,0,1.6993512,19.434973,63.006418)">
      <g
         id="g1265">
        <g
           id="path1247"
           style="opacity:1">
          <path
             style="color:#000000;font-style:normal;font-variant:normal;font-weight:bold;font-stretch:normal;font-size:medium;line-height:1.25;font-family:NeoTech;-inkscape-font-specification:'NeoTech Bold';font-variant-ligatures:normal;font-variant-position:normal;font-variant-caps:normal;font-variant-numeric:normal;font-variant-alternates:normal;font-variant-east-asian:normal;font-feature-settings:normal;font-variation-settings:normal;text-indent:0;text-align:start;text-decoration:none;text-decoration-line:none;text-decoration-style:solid;text-decoration-color:#000000;letter-spacing:normal;word-spacing:normal;text-transform:none;writing-mode:lr-tb;direction:ltr;text-orientation:mixed;dominant-baseline:auto;baseline-shift:baseline;text-anchor:start;white-space:normal;shape-padding:0;shape-margin:0;inline-size:0;clip-rule:nonzero;display:inline;overflow:visible;visibility:visible;isolation:auto;mix-blend-mode:normal;color-interpolation:sRGB;color-interpolation-filters:linearRGB;solid-color:#000000;solid-opacity:1;vector-effect:none;fill:#595f68;fill-opacity:1;fill-rule:nonzero;stroke:none;stroke-width:1.52083;stroke-linecap:butt;stroke-linejoin:miter;stroke-miterlimit:4;stroke-dasharray:none;stroke-dashoffset:0;stroke-opacity:1;paint-order:markers stroke fill;color-rendering:auto;image-rendering:auto;shape-rendering:auto;text-rendering:auto;enable-background:accumulate;stop-color:#000000;stop-opacity:1"
             d="m 52.235236,13.421108 v -0.473044 c 0,-1.231547 -0.676943,-2.145012 -2.014517,-2.145012 -1.296794,0 -2.063453,0.831905 -2.063453,2.145012 v 0.570916 c 0,1.574096 1.060272,2.096076 2.047141,2.096076 0.709567,0 1.149988,-0.06525 1.671968,-0.195742 0.138651,-0.03262 0.171275,-0.08972 0.171275,-0.220211 v -0.619851 c 0,-0.08972 -0.06525,-0.130495 -0.154963,-0.130495 h -0.02447 c -0.326238,0.03262 -1.052116,0.0734 -1.565941,0.0734 -0.644319,0 -0.840061,-0.424109 -0.840061,-0.888997 v -0.01631 h 2.601744 c 0.106028,0 0.171275,-0.0734 0.171275,-0.195743 z m -1.288638,-0.619851 h -1.484381 v -0.03262 c 0,-0.595384 0.301769,-0.905309 0.750346,-0.905309 0.456733,0 0.734035,0.301769 0.734035,0.905309 z"
             id="path1271" />
        </g>
      </g>
      <g
         id="path1249"
         style="opacity:1">
        <path
           style="color:#000000;font-style:normal;font-variant:normal;font-weight:bold;font-stretch:normal;font-size:medium;line-height:1.25;font-family:NeoTech;-inkscape-font-specification:'NeoTech Bold';font-variant-ligatures:normal;font-variant-position:normal;font-variant-caps:normal;font-variant-numeric:normal;font-variant-alternates:normal;font-variant-east-asian:normal;font-feature-settings:normal;font-variation-settings:normal;text-indent:0;text-align:start;text-decoration:none;text-decoration-line:none;text-decoration-style:solid;text-decoration-color:#000000;letter-spacing:normal;word-spacing:normal;text-transform:none;writing-mode:lr-tb;direction:ltr;text-orientation:mixed;dominant-baseline:auto;baseline-shift:baseline;text-anchor:start;white-space:normal;shape-padding:0;shape-margin:0;inline-size:0;clip-rule:nonzero;display:inline;overflow:visible;visibility:visible;isolation:auto;mix-blend-mode:normal;color-interpolation:sRGB;color-interpolation-filters:linearRGB;solid-color:#000000;solid-opacity:1;vector-effect:none;fill:#595f68;fill-opacity:1;fill-rule:nonzero;stroke:none;stroke-width:1.52083;stroke-linecap:butt;stroke-linejoin:miter;stroke-miterlimit:4;stroke-dasharray:none;stroke-dashoffset:0;stroke-opacity:1;paint-order:markers stroke fill;color-rendering:auto;image-rendering:auto;shape-rendering:auto;text-rendering:auto;enable-background:accumulate;stop-color:#000000;stop-opacity:1"
           d="m 59.200395,15.362222 v -2.879047 c 0,-1.149987 -0.660632,-1.680123 -1.802463,-1.680123 h -0.154963 c -0.4812,0 -0.848218,0.13865 -1.117364,0.350705 -0.269146,-0.212055 -0.636163,-0.350705 -1.117364,-0.350705 h -0.163118 c -1.141832,0 -1.794307,0.530136 -1.794307,1.680123 v 2.879047 c 0,0.08971 0.0734,0.179431 0.163119,0.179431 h 0.995024 c 0.08972,0 0.163119,-0.08972 0.163119,-0.179431 v -2.879047 c 0,-0.464888 0.130495,-0.595383 0.473045,-0.595383 h 0.163118 c 0.407797,0 0.456733,0.236522 0.456733,0.595383 v 2.879047 c 0,0.08971 0.0734,0.179431 0.163119,0.179431 h 1.003181 c 0.08972,0 0.154962,-0.08972 0.154962,-0.179431 v -2.879047 c 0,-0.358861 0.04894,-0.595383 0.456733,-0.595383 h 0.154963 c 0.342549,0 0.4812,0.130495 0.4812,0.595383 v 2.879047 c 0,0.08971 0.0734,0.179431 0.163119,0.179431 h 0.995025 c 0.08971,0 0.163119,-0.08972 0.163119,-0.179431 z"
           id="path1277" />
      </g>
      <g
         id="path1251"
         style="opacity:1">
        <path
           style="color:#000000;font-style:normal;font-variant:normal;font-weight:bold;font-stretch:normal;font-size:medium;line-height:1.25;font-family:NeoTech;-inkscape-font-specification:'NeoTech Bold';font-variant-ligatures:normal;font-variant-position:normal;font-variant-caps:normal;font-variant-numeric:normal;font-variant-alternates:normal;font-variant-east-asian:normal;font-feature-settings:normal;font-variation-settings:normal;text-indent:0;text-align:start;text-decoration:none;text-decoration-line:none;text-decoration-style:solid;text-decoration-color:#000000;letter-spacing:normal;word-spacing:normal;text-transform:none;writing-mode:lr-tb;direction:ltr;text-orientation:mixed;dominant-baseline:auto;baseline-shift:baseline;text-anchor:start;white-space:normal;shape-padding:0;shape-margin:0;inline-size:0;clip-rule:nonzero;display:inline;overflow:visible;visibility:visible;isolation:auto;mix-blend-mode:normal;color-interpolation:sRGB;color-interpolation-filters:linearRGB;solid-color:#000000;solid-opacity:1;vector-effect:none;fill:#595f68;fill-opacity:1;fill-rule:nonzero;stroke:none;stroke-width:1.52083;stroke-linecap:butt;stroke-linejoin:miter;stroke-miterlimit:4;stroke-dasharray:none;stroke-dashoffset:0;stroke-opacity:1;paint-order:markers stroke fill;color-rendering:auto;image-rendering:auto;shape-rendering:auto;text-rendering:auto;enable-background:accumulate;stop-color:#000000;stop-opacity:1"
           d="m 64.036854,15.166479 v -3.914851 c 0,-0.130495 -0.03262,-0.187586 -0.252834,-0.236522 -0.464889,-0.114183 -1.101052,-0.212054 -1.729059,-0.212054 -1.321263,0 -2.047141,0.766658 -2.047141,2.08792 v 0.636163 c 0,1.321263 0.725878,2.087921 2.047141,2.087921 0.628007,0 1.26417,-0.09787 1.729059,-0.212054 0.22021,-0.04894 0.252834,-0.106028 0.252834,-0.236523 z M 62.723748,14.48138 c -0.154963,0.02447 -0.399641,0.04894 -0.668787,0.04894 -0.579072,0 -0.734035,-0.424109 -0.734035,-1.003181 v -0.636163 c 0,-0.579072 0.154963,-0.995025 0.734035,-0.995025 0.269146,0 0.513824,0.01631 0.668787,0.04078 z"
           id="path1283" />
      </g>
      <path
         d="m 68.049573,15.30513 v -0.725878 c 0,-0.08156 -0.0734,-0.138651 -0.154963,-0.138651 -0.0082,0 -0.0082,0 -0.01631,0 -0.301769,0.03262 -0.530136,0.05709 -0.995024,0.05709 -0.367018,0 -0.668787,-0.22021 -0.668787,-0.946089 v -0.685099 c 0,-0.725878 0.301769,-0.946089 0.668787,-0.946089 0.464888,0 0.693255,0.02447 0.995024,0.05709 0.0082,0 0.0082,0 0.01631,0 0.08156,0 0.154963,-0.05709 0.154963,-0.138651 v -0.725879 c 0,-0.122339 -0.04894,-0.154963 -0.171275,-0.187586 -0.228366,-0.05709 -0.595383,-0.122339 -1.08474,-0.122339 -1.149987,0 -1.900334,0.734034 -1.900334,2.063452 V 13.5516 c 0,1.329419 0.750347,2.063453 1.900334,2.063453 0.489357,0 0.856374,-0.06525 1.08474,-0.122339 0.122339,-0.03262 0.171275,-0.06525 0.171275,-0.187587 z"
         style="fill:#36b3a2;fill-opacity:1;stroke:none;stroke-width:1.52083;stroke-miterlimit:4;stroke-dasharray:none;stroke-opacity:1;paint-order:markers stroke fill"
         id="path1253" />
      <path
         d="M 70.202733,15.370378 V 9.4491655 c 0,-0.089715 -0.06525,-0.1631188 -0.154963,-0.1631188 h -0.995024 c -0.08972,0 -0.171275,0.073403 -0.171275,0.1631188 v 5.9212125 c 0,0.08971 0.08156,0.171275 0.171275,0.171275 h 0.995024 c 0.08972,0 0.154963,-0.08156 0.154963,-0.171275 z"
         style="fill:#36b3a2;fill-opacity:1;stroke:none;stroke-width:1.52083;stroke-miterlimit:4;stroke-dasharray:none;stroke-opacity:1;paint-order:markers stroke fill"
         id="path1255" />
      <path
         d="m 75.137075,13.494512 v -0.570916 c 0,-1.296795 -0.717723,-2.120544 -2.038986,-2.120544 -1.321262,0 -2.04714,0.823749 -2.04714,2.120544 v 0.570916 c 0,1.296794 0.725878,2.120544 2.04714,2.120544 1.321263,0 2.038986,-0.82375 2.038986,-2.120544 z m -1.313107,0 c 0,0.660631 -0.252834,1.00318 -0.725879,1.00318 -0.473044,0 -0.734034,-0.342549 -0.734034,-1.00318 v -0.570916 c 0,-0.660631 0.26099,-0.995025 0.734034,-0.995025 0.473045,0 0.725879,0.334394 0.725879,0.995025 z"
         style="fill:#36b3a2;fill-opacity:1;stroke:none;stroke-width:1.52083;stroke-miterlimit:4;stroke-dasharray:none;stroke-opacity:1;paint-order:markers stroke fill"
         id="path1257" />
      <path
         d="m 79.957225,13.543447 v -2.503873 c 0,-0.08972 -0.06525,-0.171275 -0.154963,-0.171275 h -1.00318 c -0.08972,0 -0.163119,0.08156 -0.163119,0.171275 v 2.503873 c 0,0.774815 -0.244678,0.954245 -0.628008,0.954245 h -0.114183 c -0.383329,0 -0.628007,-0.17943 -0.628007,-0.954245 v -2.503873 c 0,-0.08972 -0.0734,-0.171275 -0.163119,-0.171275 h -1.003181 c -0.08971,0 -0.154962,0.08156 -0.154962,0.171275 v 2.503873 c 0,1.916646 1.435445,2.071609 1.949269,2.071609 h 0.114183 c 0.513825,0 1.94927,-0.154963 1.94927,-2.071609 z"
         style="fill:#36b3a2;fill-opacity:1;stroke:none;stroke-width:1.52083;stroke-miterlimit:4;stroke-dasharray:none;stroke-opacity:1;paint-order:markers stroke fill"
         id="path1259" />
      <path
         d="M 84.77738,15.166479 V 9.4491655 c 0,-0.089715 -0.08156,-0.1631188 -0.171275,-0.1631188 h -0.978713 c -0.08971,0 -0.163118,0.073403 -0.163118,0.1631188 v 1.4109775 c -0.236523,-0.03262 -0.505669,-0.05709 -0.668788,-0.05709 -1.378353,0 -2.04714,0.807438 -2.04714,2.08792 v 0.636163 c 0,1.321263 0.725878,2.087921 2.04714,2.087921 0.628008,0 1.264171,-0.09787 1.72906,-0.212054 0.22021,-0.04894 0.252834,-0.106028 0.252834,-0.236524 z M 83.464274,14.48138 c -0.154963,0.02447 -0.399641,0.04894 -0.668788,0.04894 -0.579071,0 -0.734034,-0.424109 -0.734034,-1.003181 v -0.636163 c 0,-0.570916 0.154963,-0.995025 0.734034,-0.995025 0.195743,0 0.473045,0.01631 0.668788,0.04078 z"
         style="fill:#36b3a2;fill-opacity:1;stroke:none;stroke-width:1.52083;stroke-miterlimit:4;stroke-dasharray:none;stroke-opacity:1;paint-order:markers stroke fill"
         id="path1261" />
    </g>
    <g
       id="g1256"
       transform="matrix(0.83152726,0,0,0.83152726,-18.957032,92.83943)">
      <path
         id="rect1248"
         style="fill:#2b8d80;fill-opacity:1;stroke:none;stroke-width:6.87148;stroke-miterlimit:4;stroke-dasharray:none;stroke-opacity:1"
         d="m 428.2793,-55.205078 a 20.108516,20.108516 0 0 0 -20.10938,20.107422 20.108516,20.108516 0 0 0 20.10938,20.109375 h 37.16992 V -31.5625 h -17.375 a 20.108516,20.108516 0 0 0 0.3125,-3.535156 20.108516,20.108516 0 0 0 -20.10742,-20.107422 z"
         transform="scale(0.26458334)" />
      <path
         id="path1137"
         style="fill:#36b3a2;fill-opacity:1;stroke:none;stroke-width:8.17058;stroke-miterlimit:4;stroke-dasharray:none;stroke-opacity:1"
         d="m 465.44922,-86.794922 a 35.902704,35.902704 0 0 0 -35.90234,35.904297 35.902704,35.902704 0 0 0 35.90234,35.902344 h 37.48047 v -12.197266 h -10.51953 a 35.902704,35.902704 0 0 0 8.9414,-23.705078 35.902704,35.902704 0 0 0 -35.90234,-35.904297 z"
         transform="scale(0.26458334)" />
      <path
         id="circle1122"
         style="fill:#53cbbb;fill-opacity:1;stroke:none;stroke-width:2.36741;stroke-miterlimit:4;stroke-dasharray:none;stroke-opacity:1"
         d="m 139.08891,-9.9877205 a 6.0219607,6.0219607 0 0 1 -6.02197,6.0219607 6.0219607,6.0219607 0 0 1 -6.02196,-6.0219607 6.0219607,6.0219607 0 0 1 6.02196,-6.0219605 6.0219607,6.0219607 0 0 1 6.02197,6.0219605 z" />
    </g>
  </g>
</svg>
